<?xml version="1.0" encoding="UTF-8"?>
<svg id="Capa_1" data-name="Capa 1" xmlns="http://www.w3.org/2000/svg" viewBox="0 0 1358.69 1234.85">
  <defs>
    <style>
      .cls-1 {
        fill: #23bea1;
      }

      .cls-2 {
        fill: #007059;
      }

      .cls-3 {
        fill: #33ddba;
      }
    </style>
  </defs>
  <path class="cls-3" d="m200.26,78.94C227.72,36.13,266.92,10.98,316.76,2.44,326.66.74,336.81,0,347,0c222.06.1,444.12.02,666.18.11,43.79.02,82.47,13.69,114.01,44.93,8.37,8.29,15.35,17.75,20.7,28.33,5.07,15.87,6.85,32.31,7.8,48.81,1.37,23.72,1.77,47.51,3.63,71.19.76,9.61.84,19.2,1.46,28.79,1.98,30.87,4.37,61.71,6.17,92.58,1.46,25.03,2.81,50.05,4.7,75.06,2.67,35.37,4.61,70.81,6.56,106.23,1.37,24.77,2.85,49.52,4.67,74.26,2.33,31.67,3.19,63.45,5.28,95.14.63,9.59,1.07,19.18,1.66,28.77,1.91,31.14,5.95,62.28,5.62,93.38-.36,34.21-14.66,63.04-41.4,85.89-26.86,22.95-57.5,32.35-92.21,32.33-257.54-.15-515.08-.07-772.62-.12-8.8,0-17.53-.08-26.37-1.34-45.18-6.41-78.64-29.63-99.21-70.06-9.79-19.24-12.25-40.16-10.21-62.26,2.47-26.78,3.47-53.74,5.11-80.63,1.58-26.08,3.16-52.17,4.83-78.25,1.61-25.28,3.2-50.56,4.91-75.83,2.12-31.41,2.97-62.91,5.26-94.3.68-9.33.83-18.66,1.47-27.97,2-28.98,4.37-57.93,6.19-86.92,1.43-22.64,1.71-45.36,3.63-67.95.77-9.07.85-18.12,1.44-27.17,2.07-31.65,4.05-63.32,6.33-94.95,1.11-15.39,1.7-30.83,5.25-46.02.99-4.21,4.8-8.19,2.41-13.08Zm479.47,128.81c-75.83,0-151.67,0-227.5,0-10.63,0-11.98,1.38-11.99,12.16-.02,33.23,0,66.46.02,99.68,0,10.64,1.47,12.12,12.03,12.12,46.09,0,92.18.15,138.27-.18,7.19-.05,9,1.99,8.87,9.02-1.04,57.56-.03,115.13-1.19,172.72-1.52,75-.42,150.05-.74,225.08-.03,7.92,2.75,10.08,10.31,10.02,41.53-.29,83.07-.14,124.6-.16,11.03,0,11.98-.85,11.87-11.95-.69-70.7.46-141.41-1.15-212.12-1.4-61.33-.32-122.72-.64-184.09-.03-6.72,1.9-8.55,8.56-8.51,51.45.26,102.9.15,154.35.14,12.59,0,13.97-1.31,13.98-13.66.03-32.42.01-64.85,0-97.27,0-11.44-1.62-13.04-12.92-13.04-75.57,0-151.13,0-226.7.01Z"/>
  <path class="cls-1" d="m200.26,78.94c2.39,4.89-1.42,8.87-2.41,13.08-3.56,15.19-4.15,30.62-5.25,46.02-2.28,31.64-4.26,63.3-6.33,94.95-.59,9.05-.67,18.1-1.44,27.17-1.93,22.59-2.21,45.31-3.63,67.95-1.83,28.99-4.2,57.94-6.19,86.92-.64,9.31-.79,18.64-1.47,27.97-2.29,31.39-3.14,62.89-5.26,94.3-1.71,25.27-3.29,50.55-4.91,75.83-1.67,26.08-3.25,52.16-4.83,78.25-1.63,26.89-2.64,53.85-5.11,80.63-2.04,22.1.42,43.02,10.21,62.26,20.57,40.44,54.02,63.65,99.21,70.06,8.84,1.25,17.58,1.33,26.37,1.34,257.54.04,515.08-.04,772.62.12,34.71.02,65.35-9.38,92.21-32.33,26.74-22.85,41.04-51.68,41.4-85.89.33-31.1-3.72-62.24-5.62-93.38-.59-9.59-1.02-19.18-1.66-28.77-2.1-31.69-2.96-63.47-5.28-95.14-1.82-24.74-3.3-49.49-4.67-74.26-1.96-35.42-3.89-70.86-6.56-106.23-1.89-25.01-3.24-50.03-4.7-75.06-1.8-30.88-4.19-61.72-6.17-92.58-.62-9.58-.7-19.18-1.46-28.79-1.86-23.68-2.26-47.47-3.63-71.19-.95-16.5-2.73-32.93-7.8-48.81,14.63,18.97,25.01,40.47,36.32,61.41,23.29,43.14,46.75,86.19,69.57,129.58,12.33,23.45,18.09,48.71,19.77,75.31,1.48,23.36,5.76,46.53,8.31,69.83,2.13,19.42,4.66,38.78,6.09,58.29,1.12,15.3,4.69,30.42,5.74,45.72,1.16,16.99,4.61,33.66,5.6,50.7.83,14.29,3.84,28.46,4.91,42.86,1.14,15.29,3.93,30.46,5.86,45.7,1.98,15.62,3.9,31.25,5.63,46.9,2.06,18.68,2.9,37.56,6.1,56.04,3.49,20.15,4.36,40.53,7.23,60.73,2.27,15.98,4.05,32.13,5.82,48.22,1.67,15.29,3.5,30.64,5.55,45.92,2.68,19.96,4.72,40.01,7.03,60.01,1.94,16.79,3.97,33.58,5.8,50.38,3.94,36.25,11.12,72.51-2.3,108.48-20.89,55.97-60.84,89.55-118.79,102.47-10.52,2.35-21.21,2.76-31.83,2.77-346.77.13-693.55.05-1040.32.16-47.22.01-87.75-15.81-119.69-50.67-33.34-36.37-44.89-79.87-38.65-128.58,3.04-23.71,4.91-47.56,7.69-71.3,3.8-32.5,8.2-64.93,11.88-97.44,2.15-19.05,4.25-38.1,6.05-57.2,2.6-27.54,7.76-54.84,10.1-82.39,2.3-27.04,6.55-53.83,9.43-80.79,2.88-27.01,6.5-54.01,9.6-81.03,2.25-19.61,5.3-39.13,6.21-58.92.58-12.69,3.7-25.24,4.82-37.93,1.69-19.13,4.4-38.16,6.71-57.18,2.82-23.27,4.97-46.64,8.27-69.87,2.7-19.01,3.63-38.26,7.99-57.06,6.63-28.56,21.5-53.59,34.17-79.54,18.1-37.07,36.63-73.93,54.76-110.99,6.02-12.29,12.8-24.05,20.95-35.03Z"/>
  <path class="cls-2" d="m679.73,207.74c75.57,0,151.13,0,226.7,0,11.31,0,12.92,1.6,12.92,13.04.02,32.42.04,64.85,0,97.27-.01,12.35-1.38,13.66-13.98,13.66-51.45,0-102.9.12-154.35-.14-6.65-.03-8.59,1.8-8.56,8.51.32,61.36-.76,122.75.64,184.09,1.62,70.72.47,141.42,1.15,212.12.11,11.1-.84,11.94-11.87,11.95-41.53.01-83.07-.13-124.6.16-7.56.05-10.35-2.11-10.31-10.02.32-75.03-.78-150.08.74-225.08,1.16-57.59.15-115.16,1.19-172.72.13-7.03-1.68-9.07-8.87-9.02-46.09.34-92.18.18-138.27.18-10.55,0-12.02-1.48-12.03-12.12-.01-33.23-.03-66.46-.02-99.68,0-10.78,1.36-12.16,11.99-12.16,75.83-.02,151.67,0,227.5-.02Z"/>
</svg>